HIERARCHY
ROOT Hips
{
  OFFSET 0.0000 0.0000 0.0000
  CHANNELS 6 Xposition Yposition Zposition Zrotation Xrotation Yrotation
  JOINT LeftHip
  {
    OFFSET 5.5000 -0.0000 0.0000
    CHANNELS 3 Zrotation Xrotation Yrotation
    JOINT LeftKnee
    {
      OFFSET -0.0000 -17.5000 -0.0000
      CHANNELS 3 Zrotation Xrotation Yrotation
      JOINT LeftAnkle
      {
        OFFSET 0.0000 -17.0000 0.0000
        CHANNELS 3 Zrotation Xrotation Yrotation
        End Site
        {
            OFFSET 0.0000 -4.7000 -2.0000
        }
      }
    }
  }
  JOINT RightHip
  {
    OFFSET -5.5000 0.0000 0.0000
    CHANNELS 3 Zrotation Xrotation Yrotation
    JOINT RightKnee
    {
      OFFSET 0.0000 -17.5000 0.0000
      CHANNELS 3 Zrotation Xrotation Yrotation
      JOINT RightAnkle
      {
        OFFSET -0.0000 -17.0000 0.0000
        CHANNELS 3 Zrotation Xrotation Yrotation
        End Site
        {
            OFFSET 0.0000 -4.7000 -2.0000
        }
      }
    }
  }
  JOINT Chest
  {
    OFFSET 0.0000 3.0000 -1.0000
    CHANNELS 3 Zrotation Xrotation Yrotation
    JOINT LeftCollar
    {
      OFFSET 0.0000 18.0000 1.0000
      CHANNELS 3 Zrotation Xrotation Yrotation
      JOINT LeftShoulder
      {
        OFFSET 6.5000 0.0000 -0.0000
        CHANNELS 3 Zrotation Xrotation Yrotation
        JOINT LeftElbow
        {
          OFFSET 0.0000 -11.0000 0.0000
          CHANNELS 3 Zrotation Xrotation Yrotation
          JOINT LeftWrist
          {
            OFFSET 0.0000 -10.5000 0.0000
            CHANNELS 3 Zrotation Xrotation Yrotation
            End Site
            {
                OFFSET 0.0000 -6.0000 0.0000
            }
          }
        }
      }
    }
    JOINT RightCollar
    {
      OFFSET 0.0000 18.0000 1.0000
      CHANNELS 3 Zrotation Xrotation Yrotation
      JOINT RightShoulder
      {
        OFFSET -6.5000 -0.0000 0.0000
        CHANNELS 3 Zrotation Xrotation Yrotation
        JOINT RightElbow
        {
          OFFSET 0.0000 -11.0000 -0.0000
          CHANNELS 3 Zrotation Xrotation Yrotation
          JOINT RightWrist
          {
            OFFSET 0.0000 -10.5000 0.0000
            CHANNELS 3 Zrotation Xrotation Yrotation
            End Site
            {
                OFFSET -0.0000 -6.0000 -0.0000
            }
          }
        }
      }
    }
    JOINT Neck
    {
      OFFSET 0.0000 18.0000 1.0000
      CHANNELS 3 Zrotation Xrotation Yrotation
      JOINT Head
      {
        OFFSET 0.0000 3.0000 0.0000
        CHANNELS 3 Zrotation Xrotation Yrotation
        End Site
        {
            OFFSET -0.0000 7.0000 -0.0000
        }
      }
    }
  }
}
MOTION
Frames:	33
Frame Time:	0.033333
-0.4815 40.7683 -0.2830 0.14 -0.25 1.40 -2.63 -3.02 -0.35 0.00 12.17 0.00 0.84 -5.59 0.34 3.70 -3.09 0.24 0.00 11.92 0.01 -1.61 -5.20 -0.22 -0.12 0.25 0.41 0.00 0.00 0.00 10.18 -4.69 -3.23 -0.00 -9.32 0.89 -11.76 0.22 -0.95 0.00 0.00 0.00 -10.37 -4.50 3.57 0.00 -9.54 -0.91 11.92 0.09 -0.01 0.00 0.00 0.00 0.33 -3.43 0.02 
-0.3723 40.7692 -0.2810 0.12 -0.24 1.17 -2.82 -2.97 -0.51 -0.00 12.13 -0.08 1.02 -5.61 0.84 3.51 -3.13 0.06 -0.00 11.95 -0.08 -1.42 -5.20 0.31 -0.08 0.15 0.23 0.00 0.00 0.00 10.46 -5.02 -3.11 0.00 -9.78 0.95 -11.94 0.90 -0.14 0.00 0.00 0.00 -10.69 -4.75 3.56 -0.00 -10.12 -0.91 12.11 0.31 0.12 0.00 0.00 0.00 0.26 -3.57 -0.18 
-0.2789 40.7697 -0.2788 0.10 -0.24 1.03 -2.96 -2.94 -0.50 0.00 12.10 -0.03 1.17 -5.62 0.94 3.36 -3.15 0.06 -0.00 11.98 -0.03 -1.27 -5.20 0.42 -0.06 0.15 0.28 0.00 0.00 0.00 10.73 -5.34 -2.95 0.00 -10.22 0.98 -12.09 1.37 0.52 0.00 0.00 0.00 -11.05 -4.81 3.66 0.00 -11.02 -0.96 12.23 0.50 -0.04 0.00 0.00 0.00 0.21 -3.61 -0.19 
-0.2500 40.7698 -0.2780 0.10 -0.24 0.95 -3.01 -2.92 -0.44 -0.00 12.09 0.01 1.22 -5.63 0.95 3.32 -3.16 0.11 -0.00 11.99 0.01 -1.23 -5.20 0.42 -0.05 0.26 0.37 0.00 0.00 0.00 11.03 -5.56 -2.89 -0.00 -10.58 0.98 -12.24 1.59 1.13 0.00 0.00 0.00 -11.42 -4.73 3.71 -0.00 -11.77 -1.03 12.39 0.57 -0.10 0.00 0.00 0.00 0.18 -3.63 -0.22 
-0.2452 40.7698 -0.2777 0.10 -0.24 0.89 -3.01 -2.92 -0.39 0.00 12.08 0.02 1.22 -5.63 0.93 3.32 -3.17 0.16 -0.00 11.99 0.03 -1.23 -5.19 0.41 -0.05 0.42 0.44 0.00 0.00 0.00 11.37 -5.75 -2.89 0.00 -11.22 1.01 -12.43 1.85 1.93 0.00 0.00 0.00 -11.81 -4.62 3.70 -0.00 -12.48 -1.11 12.58 0.68 -0.08 0.00 0.00 0.00 0.16 -3.68 -0.26 
-0.2410 40.7698 -0.2773 0.10 -0.24 0.86 -3.01 -2.91 -0.35 -0.00 12.08 0.03 1.23 -5.64 0.92 3.31 -3.17 0.20 0.00 11.99 0.03 -1.22 -5.19 0.40 -0.05 0.57 0.49 0.00 0.00 0.00 11.71 -5.90 -2.91 -0.00 -12.65 1.12 -12.68 2.30 2.87 0.00 0.00 0.00 -12.20 -4.49 3.66 -0.00 -13.58 -1.22 12.81 0.93 -0.03 0.00 0.00 0.00 0.14 -3.72 -0.30 
-0.2375 40.7698 -0.2768 0.10 -0.24 0.83 -3.01 -2.91 -0.33 0.00 12.08 0.02 1.23 -5.64 0.92 3.31 -3.18 0.22 -0.00 11.99 0.03 -1.22 -5.19 0.40 -0.05 0.70 0.52 0.00 0.00 0.00 12.01 -5.98 -2.94 0.00 -14.52 1.28 -13.06 2.77 3.92 0.00 0.00 0.00 -12.59 -4.33 3.61 -0.00 -15.54 -1.41 13.02 1.50 0.02 0.00 0.00 0.00 0.13 -3.71 -0.33 
-0.2346 40.7698 -0.2762 0.10 -0.24 0.82 -3.02 -2.91 -0.30 0.00 12.08 0.02 1.23 -5.64 0.92 3.31 -3.18 0.24 -0.00 11.99 0.02 -1.21 -5.19 0.40 -0.05 0.81 0.55 0.00 0.00 0.00 12.23 -6.02 -2.97 -0.00 -16.81 1.50 -13.54 3.25 5.10 0.00 0.00 0.00 -12.99 -4.15 3.55 -0.00 -18.13 -1.65 13.21 2.19 0.05 0.00 0.00 0.00 0.12 -3.62 -0.36 
-0.2323 40.7697 -0.2756 0.10 -0.23 0.81 -3.02 -2.90 -0.29 -0.00 12.07 0.01 1.23 -5.64 0.91 3.31 -3.18 0.25 0.00 12.00 0.02 -1.21 -5.19 0.40 -0.05 0.89 0.56 0.00 0.00 0.00 12.47 -6.03 -2.98 -0.00 -20.64 1.84 -14.15 4.08 6.54 0.00 0.00 0.00 -13.39 -3.95 3.50 -0.00 -21.20 -1.91 13.35 2.93 0.06 0.00 0.00 0.00 0.11 -3.46 -0.38 
-0.2307 40.7697 -0.2749 0.10 -0.23 0.80 -3.02 -2.90 -0.28 0.00 12.07 0.01 1.24 -5.64 0.91 3.31 -3.18 0.26 0.00 12.00 0.02 -1.21 -5.19 0.39 -0.05 0.94 0.58 0.00 0.00 0.00 12.93 -6.05 -3.04 0.00 -25.09 2.15 -14.90 4.83 8.35 0.00 0.00 0.00 -13.79 -3.76 3.39 -0.00 -24.66 -2.22 13.43 3.70 0.09 0.00 0.00 0.00 0.10 -3.26 -0.40 
-0.2297 40.7697 -0.2742 0.10 -0.23 0.80 -3.02 -2.90 -0.27 -0.00 12.07 0.01 1.24 -5.65 0.91 3.31 -3.18 0.26 -0.00 12.00 0.01 -1.21 -5.19 0.39 -0.05 0.96 0.59 0.00 0.00 0.00 13.55 -6.12 -3.62 -0.00 -29.53 2.25 -15.69 5.27 10.80 0.00 0.00 0.00 -14.19 -3.60 3.07 -0.00 -28.43 -2.61 13.43 4.49 0.19 0.00 0.00 0.00 0.09 -3.06 -0.42 
-0.2293 40.7697 -0.2735 0.10 -0.23 0.80 -3.01 -2.90 -0.27 -0.00 12.07 0.00 1.23 -5.65 0.91 3.31 -3.18 0.27 -0.00 12.00 0.01 -1.21 -5.19 0.39 -0.05 0.95 0.60 0.00 0.00 0.00 14.27 -6.25 -4.77 -0.00 -34.28 2.28 -16.46 5.63 13.78 0.00 0.00 0.00 -14.58 -3.48 2.64 0.00 -32.42 -2.99 13.47 5.27 0.25 0.00 0.00 0.00 0.08 -2.90 -0.45 
-0.2294 40.7696 -0.2729 0.10 -0.23 0.79 -3.01 -2.90 -0.26 -0.00 12.07 0.00 1.23 -5.65 0.90 3.31 -3.18 0.27 0.00 12.00 0.01 -1.22 -5.19 0.39 -0.05 0.92 0.61 0.00 0.00 0.00 15.01 -6.48 -6.27 -0.00 -39.16 2.39 -17.14 5.97 16.94 0.00 0.00 0.00 -14.97 -3.43 2.16 -0.00 -36.57 -3.33 13.48 6.02 0.20 0.00 0.00 0.00 0.07 -2.76 -0.47 
-0.2300 40.7696 -0.2722 0.11 -0.23 0.79 -3.01 -2.90 -0.26 0.00 12.07 0.00 1.23 -5.65 0.89 3.31 -3.18 0.27 -0.00 12.00 0.01 -1.22 -5.19 0.39 -0.05 0.85 0.62 0.00 0.00 0.00 15.69 -6.83 -7.77 0.00 -43.90 2.65 -17.73 6.31 19.93 0.00 0.00 0.00 -15.35 -3.47 1.66 -0.00 -40.80 -3.64 13.46 6.72 0.06 0.00 0.00 0.00 0.06 -2.67 -0.49 
-0.2308 40.7696 -0.2716 0.11 -0.23 0.79 -3.01 -2.90 -0.25 0.00 12.07 0.00 1.23 -5.65 0.89 3.32 -3.18 0.27 0.00 12.00 0.01 -1.22 -5.19 0.38 -0.05 0.75 0.63 0.00 0.00 0.00 16.32 -7.33 -8.90 -0.00 -48.18 3.02 -18.29 6.65 22.68 0.00 0.00 0.00 -15.72 -3.61 1.16 0.00 -45.03 -3.92 13.39 7.38 -0.19 0.00 0.00 0.00 0.05 -2.62 -0.51 
-0.2322 40.7696 -0.2708 0.11 -0.23 0.79 -3.00 -2.90 -0.25 0.00 12.07 0.00 1.22 -5.65 0.88 3.32 -3.18 0.27 -0.00 12.00 0.01 -1.23 -5.20 0.38 -0.05 0.62 0.64 0.00 0.00 0.00 16.92 -8.03 -9.68 0.00 -51.62 3.37 -18.81 6.81 25.42 0.00 0.00 0.00 -16.04 -3.89 0.68 0.00 -49.21 -4.17 13.30 8.00 -0.68 0.00 0.00 0.00 0.04 -2.62 -0.53 
-0.2344 40.7695 -0.2699 0.11 -0.23 0.79 -3.00 -2.90 -0.25 -0.00 12.07 0.00 1.21 -5.65 0.87 3.32 -3.18 0.27 -0.00 12.00 0.01 -1.23 -5.20 0.37 -0.05 0.46 0.65 0.00 0.00 0.00 17.48 -8.95 -10.40 0.00 -54.41 3.61 -19.24 6.96 28.44 0.00 0.00 0.00 -16.33 -4.32 0.23 -0.00 -53.25 -4.39 13.23 8.57 -1.57 0.00 0.00 0.00 0.03 -2.66 -0.56 
-0.2372 40.7695 -0.2689 0.11 -0.23 0.79 -2.99 -2.90 -0.25 0.00 12.07 0.00 1.21 -5.65 0.86 3.33 -3.17 0.27 0.00 12.00 0.01 -1.24 -5.20 0.37 -0.05 0.27 0.66 0.00 0.00 0.00 17.99 -10.11 -11.05 0.00 -57.07 3.79 -19.58 7.30 31.79 0.00 0.00 0.00 -16.59 -4.92 -0.18 -0.00 -57.02 -4.57 13.20 9.07 -2.86 0.00 0.00 0.00 0.02 -2.74 -0.58 
-0.2408 40.7694 -0.2678 0.11 -0.23 0.79 -2.98 -2.90 -0.24 0.00 12.07 0.00 1.20 -5.65 0.85 3.34 -3.17 0.28 -0.00 11.99 0.01 -1.25 -5.20 0.36 -0.04 0.14 0.67 0.00 0.00 0.00 18.46 -11.43 -11.57 0.00 -60.10 3.99 -19.77 7.85 35.03 0.00 0.00 0.00 -16.85 -5.56 -0.50 0.00 -60.47 -4.71 13.20 9.37 -4.43 0.00 0.00 0.00 0.01 -2.74 -0.60 
-0.2448 40.7693 -0.2668 0.11 -0.22 0.80 -2.98 -2.90 -0.24 0.00 12.07 0.00 1.19 -5.65 0.84 3.34 -3.17 0.28 -0.00 11.99 0.01 -1.25 -5.20 0.36 -0.05 0.12 0.68 0.00 0.00 0.00 19.07 -12.08 -11.85 0.00 -62.91 4.20 -19.78 7.93 37.44 0.00 0.00 0.00 -17.13 -6.15 -0.71 0.00 -63.63 -4.80 13.22 9.43 -6.09 0.00 0.00 0.00 -0.00 -2.61 -0.63 
-0.2489 40.7693 -0.2659 0.12 -0.22 0.80 -2.97 -2.90 -0.24 0.00 12.07 -0.00 1.18 -5.65 0.82 3.35 -3.17 0.28 -0.00 11.99 0.01 -1.26 -5.20 0.35 -0.05 0.17 0.69 0.00 0.00 0.00 19.86 -12.08 -11.93 -0.00 -65.55 4.36 -19.68 7.78 39.38 0.00 0.00 0.00 -17.46 -6.68 -0.83 0.00 -66.58 -4.86 13.26 9.40 -7.65 0.00 0.00 0.00 -0.01 -2.46 -0.65 
-0.2533 40.7692 -0.2649 0.12 -0.22 0.80 -2.96 -2.90 -0.23 0.00 12.07 -0.00 1.17 -5.66 0.81 3.36 -3.17 0.28 -0.00 11.99 0.01 -1.27 -5.21 0.34 -0.05 0.20 0.69 0.00 0.00 0.00 20.65 -12.19 -11.98 0.00 -68.39 4.49 -19.52 8.10 41.31 0.00 0.00 0.00 -17.87 -7.16 -0.88 -0.00 -69.40 -4.90 13.35 9.37 -9.02 0.00 0.00 0.00 -0.02 -2.41 -0.67 
-0.2581 40.7692 -0.2640 0.12 -0.22 0.80 -2.95 -2.90 -0.23 0.00 12.07 -0.00 1.16 -5.66 0.80 3.37 -3.17 0.28 0.00 11.99 0.01 -1.28 -5.21 0.34 -0.05 0.10 0.70 0.00 0.00 0.00 21.40 -12.58 -12.20 -0.00 -71.42 4.57 -19.32 8.84 43.23 0.00 0.00 0.00 -18.37 -7.59 -0.86 -0.00 -72.17 -4.91 13.51 9.39 -10.22 0.00 0.00 0.00 -0.03 -2.49 -0.70 
-0.2632 40.7691 -0.2630 0.12 -0.22 0.81 -2.94 -2.90 -0.23 -0.00 12.07 -0.00 1.15 -5.66 0.78 3.38 -3.17 0.28 -0.00 11.99 0.01 -1.29 -5.21 0.33 -0.05 -0.02 0.71 0.00 0.00 0.00 22.07 -13.02 -12.89 -0.00 -74.50 4.63 -18.98 9.68 44.86 0.00 0.00 0.00 -18.93 -7.83 -0.71 0.00 -74.96 -4.91 13.69 9.31 -11.20 0.00 0.00 0.00 -0.04 -2.50 -0.72 
-0.2686 40.7690 -0.2620 0.12 -0.22 0.81 -2.93 -2.90 -0.23 -0.00 12.07 -0.00 1.14 -5.66 0.77 3.39 -3.16 0.27 0.00 11.99 0.01 -1.30 -5.21 0.32 -0.05 -0.13 0.72 0.00 0.00 0.00 22.63 -13.48 -14.11 0.00 -77.72 4.71 -18.48 10.60 45.95 0.00 0.00 0.00 -19.55 -7.90 -0.60 -0.00 -77.89 -4.93 13.95 9.18 -11.97 0.00 0.00 0.00 -0.05 -2.41 -0.74 
-0.2744 40.7690 -0.2609 0.13 -0.22 0.81 -2.92 -2.90 -0.22 0.00 12.07 -0.00 1.13 -5.66 0.75 3.40 -3.16 0.27 0.00 11.99 0.01 -1.31 -5.21 0.31 -0.05 -0.19 0.73 0.00 0.00 0.00 23.08 -13.98 -15.76 -0.00 -81.26 4.83 -17.97 11.58 47.06 0.00 0.00 0.00 -20.20 -7.84 -0.68 0.00 -80.99 -4.96 14.34 9.02 -12.59 0.00 0.00 0.00 -0.05 -2.24 -0.77 
-0.2805 40.7689 -0.2599 0.13 -0.22 0.82 -2.91 -2.90 -0.22 0.00 12.07 -0.00 1.12 -5.66 0.74 3.41 -3.16 0.27 0.00 11.99 0.01 -1.33 -5.22 0.31 -0.05 -0.21 0.74 0.00 0.00 0.00 23.40 -14.61 -17.61 -0.00 -84.92 4.96 -17.61 12.45 48.52 0.00 0.00 0.00 -20.87 -7.72 -0.84 -0.00 -84.25 -4.98 14.85 8.86 -13.16 0.00 0.00 0.00 -0.06 -2.01 -0.79 
-0.2868 40.7688 -0.2588 0.13 -0.22 0.82 -2.90 -2.90 -0.22 -0.00 12.07 -0.00 1.11 -5.66 0.72 3.42 -3.16 0.27 0.00 11.99 0.01 -1.34 -5.22 0.30 -0.05 -0.19 0.75 0.00 0.00 0.00 23.65 -15.34 -19.45 0.00 -87.89 5.06 -17.40 12.92 50.01 0.00 0.00 0.00 -21.54 -7.64 -0.88 0.00 -87.58 -4.99 15.44 8.69 -13.75 0.00 0.00 0.00 -0.07 -1.73 -0.81 
-0.2934 40.7687 -0.2578 0.13 -0.21 0.83 -2.89 -2.91 -0.22 0.00 12.07 -0.00 1.09 -5.66 0.71 3.43 -3.16 0.27 0.00 11.98 0.01 -1.35 -5.22 0.29 -0.05 -0.14 0.75 0.00 0.00 0.00 23.83 -16.08 -21.22 180.00 -89.70 -174.86 -17.25 13.05 51.38 0.00 0.00 0.00 -22.19 -7.65 -0.60 180.00 -89.10 174.99 16.05 8.54 -14.49 0.00 0.00 0.00 -0.07 -1.41 -0.83 
-0.3002 40.7687 -0.2567 0.13 -0.21 0.83 -2.88 -2.91 -0.21 0.00 12.07 -0.00 1.08 -5.66 0.69 3.44 -3.15 0.27 -0.00 11.98 0.01 -1.36 -5.22 0.28 -0.05 -0.08 0.76 0.00 0.00 0.00 23.97 -16.82 -22.95 180.00 -87.30 -174.79 -17.03 13.00 52.61 0.00 0.00 0.00 -22.82 -7.83 -0.07 180.00 -85.88 174.97 16.72 8.42 -15.38 0.00 0.00 0.00 -0.08 -1.19 -0.86 
-0.3072 40.7686 -0.2555 0.14 -0.21 0.84 -2.87 -2.91 -0.21 0.00 12.07 -0.00 1.07 -5.66 0.67 3.45 -3.15 0.27 0.00 11.98 0.01 -1.38 -5.22 0.27 -0.05 -0.01 0.77 0.00 0.00 0.00 24.03 -17.60 -24.64 -180.00 -84.92 -174.73 -16.67 12.76 53.62 0.00 0.00 0.00 -23.40 -8.20 0.62 180.00 -82.88 174.94 17.43 8.30 -16.39 0.00 0.00 0.00 -0.09 -1.18 -0.88 
-0.3144 40.7685 -0.2544 0.14 -0.21 0.84 -2.85 -2.91 -0.21 -0.00 12.07 -0.00 1.05 -5.67 0.65 3.46 -3.15 0.27 -0.00 11.98 0.01 -1.39 -5.23 0.26 -0.06 0.06 0.78 0.00 0.00 0.00 24.05 -18.45 -26.29 180.00 -82.65 -174.70 -16.33 12.30 54.42 0.00 0.00 0.00 -23.90 -8.76 1.44 -180.00 -80.20 174.89 18.15 8.17 -17.40 0.00 0.00 0.00 -0.10 -1.31 -0.90 
-0.3218 40.7684 -0.2533 0.14 -0.21 0.85 -2.84 -2.91 -0.21 0.00 12.07 -0.00 1.04 -5.67 0.64 3.48 -3.15 0.27 -0.00 11.98 0.01 -1.40 -5.23 0.25 -0.06 0.12 0.78 0.00 0.00 0.00 24.05 -19.43 -27.92 180.00 -80.55 -174.71 -16.14 11.72 55.04 0.00 0.00 0.00 -24.30 -9.48 2.36 180.00 -77.89 174.83 18.79 8.02 -18.34 0.00 0.00 0.00 -0.11 -1.43 -0.92 
